<svg xmlns="http://www.w3.org/2000/svg" xmlns:xlink="http://www.w3.org/1999/xlink" preserveAspectRatio="xMidYMid" width="90" height="90" viewBox="0 0 90 90">
  <defs>
    <style>
      .cls-1 {
        fill: #9ad473;
      }

      .cls-2 {
        fill: #fff;
      }

      .cls-2, .cls-3 {
        fill-rule: evenodd;
      }

      .cls-3 {
        stroke: #fff;
        stroke-width: 3px;
        fill: none;
      }
    </style>
  </defs>
  <g>
    <circle cx="45" cy="45" r="45" class="cls-1"/>
    <path d="M55.773,40.906 L42.750,51.834 C42.116,52.366 41.170,52.284 40.637,51.649 C40.508,51.496 40.419,51.323 40.361,51.143 L34.533,44.873 C33.969,44.266 34.003,43.317 34.610,42.753 C35.217,42.189 36.166,42.224 36.730,42.830 L42.025,48.526 L53.845,38.608 C54.479,38.076 55.425,38.158 55.958,38.793 C56.490,39.428 56.408,40.374 55.773,40.906 Z" class="cls-2"/>
    <path d="M26.500,27.500 C26.500,27.500 19.639,60.047 46.500,71.500 C46.500,71.500 70.599,63.243 67.500,27.500 C67.500,27.500 50.108,28.559 46.500,22.500 C46.500,22.500 44.421,28.367 26.500,27.500 Z" class="cls-3"/>
  </g>
</svg>
